<svg xmlns="http://www.w3.org/2000/svg" viewBox="0 0 64 64" width="64" height="64">
  <!-- Daishi (大師) - Lotus flower (Buddhist symbol) -->
  <!-- Center petals -->
  <ellipse cx="32" cy="20" rx="6" ry="14" fill="currentColor"/>
  <ellipse cx="32" cy="20" rx="6" ry="14" fill="currentColor" transform="rotate(36 32 28)"/>
  <ellipse cx="32" cy="20" rx="6" ry="14" fill="currentColor" transform="rotate(72 32 28)"/>
  <ellipse cx="32" cy="20" rx="6" ry="14" fill="currentColor" transform="rotate(108 32 28)"/>
  <ellipse cx="32" cy="20" rx="6" ry="14" fill="currentColor" transform="rotate(144 32 28)"/>
  <!-- Center circle -->
  <circle cx="32" cy="28" r="6" fill="white"/>
  <circle cx="32" cy="28" r="3" fill="currentColor"/>
  <!-- Base/platform -->
  <path d="M14 48 Q32 40, 50 48 L52 52 L12 52 Z" fill="currentColor"/>
  <rect x="10" y="52" width="44" height="3" rx="1" fill="currentColor"/>
  <rect x="8" y="55" width="48" height="3" rx="1" fill="currentColor"/>
</svg>
